<svg width="640" height="480" viewBox="0 0 640 480" fill="none" xmlns="http://www.w3.org/2000/svg">
  <rect width="640" height="480" fill="#f5f5f5"/>
  <g stroke="#111111" stroke-width="13" stroke-linecap="round" stroke-linejoin="round">
    <path d="M285 92h70"/>
    <path d="M301 92v54h38V92"/>
    <path d="M259 150h122"/>
    <path d="M238 194c0-27 22-49 49-49h66c27 0 49 22 49 49v154c0 27-22 49-49 49h-66c-27 0-49-22-49-49V194Z"/>
    <path d="M268 245h104v70H268z"/>
    <path d="M289 281h62"/>
    <path d="M451 186c32 10 54 35 54 66"/>
    <path d="M451 318c32-10 54-35 54-66"/>
  </g>
</svg>
